<svg width="226" height="96" viewBox="0 0 226 96" fill="none" xmlns="http://www.w3.org/2000/svg">
<g filter="url(#filter0_d_11_1234)">
<rect x="18.4858" y="5" width="189" height="60" rx="30" fill="#FF5B2E"/>
</g>
<g filter="url(#filter1_d_11_1234)">
<circle cx="167.486" cy="35" r="10" fill="#FFFAF5"/>
</g>
<path d="M166.486 32.5L168.986 35L166.486 37.5" stroke="#FD5056" stroke-linecap="round" stroke-linejoin="round"/>
<path d="M55.892 37.704C55.892 38.648 55.252 39.176 54.164 39.176H51.908V36.168H54.116C55.204 36.168 55.892 36.744 55.892 37.704ZM55.62 33.048C55.62 33.96 55.012 34.44 53.956 34.44H51.908V31.64H53.956C55.012 31.64 55.62 32.152 55.62 33.048ZM58.164 37.976C58.164 36.664 57.268 35.496 56.004 35.272C57.092 34.92 57.908 34.072 57.908 32.712C57.908 31.048 56.612 29.832 54.276 29.832H49.668V41H54.484C56.804 41 58.164 39.752 58.164 37.976ZM68.5092 36.568C68.5092 33.768 66.5092 31.992 63.9492 31.992C61.3892 31.992 59.3892 33.768 59.3892 36.568C59.3892 39.352 61.3252 41.144 63.8852 41.144C66.4612 41.144 68.5092 39.352 68.5092 36.568ZM61.6612 36.568C61.6612 34.792 62.7332 33.944 63.9172 33.944C65.1012 33.944 66.2052 34.792 66.2052 36.568C66.2052 38.328 65.0692 39.192 63.8852 39.192C62.6852 39.192 61.6612 38.328 61.6612 36.568ZM78.7123 36.568C78.7123 33.768 76.7123 31.992 74.1523 31.992C71.5923 31.992 69.5923 33.768 69.5923 36.568C69.5923 39.352 71.5283 41.144 74.0883 41.144C76.6643 41.144 78.7123 39.352 78.7123 36.568ZM71.8643 36.568C71.8643 34.792 72.9363 33.944 74.1203 33.944C75.3043 33.944 76.4083 34.792 76.4083 36.568C76.4083 38.328 75.2723 39.192 74.0883 39.192C72.8883 39.192 71.8643 38.328 71.8643 36.568ZM80.3555 41H82.5955V37.224L85.6035 41H88.5155L84.5795 36.584L88.4835 32.136H85.5715L82.5955 35.896V29.16H80.3555V41ZM92.9357 36.536C92.9357 39.304 94.7277 41.144 96.9677 41.144C98.3757 41.144 99.3837 40.472 99.9117 39.704V41H102.168V32.136H99.9117V33.4C99.3837 32.664 98.4077 31.992 96.9837 31.992C94.7277 31.992 92.9357 33.768 92.9357 36.536ZM99.9117 36.568C99.9117 38.248 98.7917 39.176 97.5597 39.176C96.3597 39.176 95.2237 38.216 95.2237 36.536C95.2237 34.856 96.3597 33.96 97.5597 33.96C98.7917 33.96 99.9117 34.888 99.9117 36.568ZM108.168 41H110.408V33.736L113.416 41H115.112L118.104 33.736V41H120.344V29.832H117.816L114.264 38.136L110.712 29.832H108.168V41ZM126.367 33.832C127.519 33.832 128.447 34.568 128.479 35.736H124.271C124.447 34.52 125.295 33.832 126.367 33.832ZM130.575 38.216H128.159C127.871 38.808 127.343 39.288 126.383 39.288C125.263 39.288 124.367 38.552 124.255 37.24H130.735C130.783 36.952 130.799 36.664 130.799 36.376C130.799 33.736 128.991 31.992 126.431 31.992C123.807 31.992 121.983 33.768 121.983 36.568C121.983 39.352 123.855 41.144 126.431 41.144C128.623 41.144 130.095 39.848 130.575 38.216ZM136.242 33.832C137.394 33.832 138.322 34.568 138.354 35.736H134.146C134.322 34.52 135.17 33.832 136.242 33.832ZM140.45 38.216H138.034C137.746 38.808 137.218 39.288 136.258 39.288C135.138 39.288 134.242 38.552 134.13 37.24H140.61C140.658 36.952 140.674 36.664 140.674 36.376C140.674 33.736 138.866 31.992 136.306 31.992C133.682 31.992 131.858 33.768 131.858 36.568C131.858 39.352 133.73 41.144 136.306 41.144C138.498 41.144 139.97 39.848 140.45 38.216ZM142.661 38.248C142.661 40.28 143.797 41 145.493 41H146.901V39.112H145.861C145.157 39.112 144.917 38.856 144.917 38.264V33.976H146.901V32.136H144.917V29.944H142.661V32.136H141.605V33.976H142.661V38.248Z" fill="white"/>
<defs>
<filter id="filter0_d_11_1234" x="0.48584" y="0" width="225" height="96" filterUnits="userSpaceOnUse" color-interpolation-filters="sRGB">
<feFlood flood-opacity="0" result="BackgroundImageFix"/>
<feColorMatrix in="SourceAlpha" type="matrix" values="0 0 0 0 0 0 0 0 0 0 0 0 0 0 0 0 0 0 127 0" result="hardAlpha"/>
<feMorphology radius="8" operator="erode" in="SourceAlpha" result="effect1_dropShadow_11_1234"/>
<feOffset dy="13"/>
<feGaussianBlur stdDeviation="13"/>
<feComposite in2="hardAlpha" operator="out"/>
<feColorMatrix type="matrix" values="0 0 0 0 1 0 0 0 0 0.356863 0 0 0 0 0.180392 0 0 0 0.42 0"/>
<feBlend mode="normal" in2="BackgroundImageFix" result="effect1_dropShadow_11_1234"/>
<feBlend mode="normal" in="SourceGraphic" in2="effect1_dropShadow_11_1234" result="shape"/>
</filter>
<filter id="filter1_d_11_1234" x="152.486" y="19" width="38" height="38" filterUnits="userSpaceOnUse" color-interpolation-filters="sRGB">
<feFlood flood-opacity="0" result="BackgroundImageFix"/>
<feColorMatrix in="SourceAlpha" type="matrix" values="0 0 0 0 0 0 0 0 0 0 0 0 0 0 0 0 0 0 127 0" result="hardAlpha"/>
<feMorphology radius="1" operator="erode" in="SourceAlpha" result="effect1_dropShadow_11_1234"/>
<feOffset dx="4" dy="3"/>
<feGaussianBlur stdDeviation="5"/>
<feComposite in2="hardAlpha" operator="out"/>
<feColorMatrix type="matrix" values="0 0 0 0 0.750944 0 0 0 0 0.161687 0 0 0 0 0 0 0 0 0.4 0"/>
<feBlend mode="normal" in2="BackgroundImageFix" result="effect1_dropShadow_11_1234"/>
<feBlend mode="normal" in="SourceGraphic" in2="effect1_dropShadow_11_1234" result="shape"/>
</filter>
</defs>
</svg>
