<svg width="566" height="38" viewBox="0 0 566 38" fill="none" xmlns="http://www.w3.org/2000/svg">
<rect x="217.466" y="12.4111" width="15.0517" height="12.9756" fill="url(#paint0_linear_11_1098)"/>
<path d="M216.946 9.29688H233.036L234.074 12.6705H215.908L216.946 9.29688Z" fill="url(#paint1_linear_11_1098)"/>
<rect width="2.0761" height="2.0761" transform="matrix(1 0 0 -1 229.663 10.0762)" fill="url(#paint2_linear_11_1098)"/>
<rect x="219.023" y="14.2266" width="2.59512" height="2.59512" rx="0.5" fill="#FFFAF5"/>
<rect x="219.023" y="19.418" width="2.59512" height="2.59512" rx="0.5" fill="#FFFAF5"/>
<rect x="223.694" y="14.2266" width="2.59512" height="2.59512" rx="0.5" fill="#FFFAF5"/>
<rect x="223.694" y="19.418" width="2.59512" height="2.59512" rx="0.5" fill="#FFFAF5"/>
<rect x="228.365" y="14.2266" width="2.59512" height="2.59512" rx="0.5" fill="#FFFAF5"/>
<rect x="228.365" y="19.418" width="2.59512" height="2.59512" rx="0.5" fill="#FFFAF5"/>
<g filter="url(#filter0_d_11_1098)">
<path fill-rule="evenodd" clip-rule="evenodd" d="M217.49 21.5909C219.568 19.4546 224.764 23.1929 217.49 27.9998C210.216 23.1934 215.412 19.4546 217.49 21.5909Z" fill="url(#paint3_linear_11_1098)"/>
</g>
<g filter="url(#filter1_d_11_1098)">
<path d="M213.054 24.9199H214.532L215.124 23.7369L216.11 26.0536L217.046 24.3284L217.786 24.8706L218.575 22.8496L219.61 25.4128L220.004 24.8706H221.877" stroke="white" stroke-width="0.492928" stroke-linecap="round" stroke-linejoin="round"/>
</g>
<path d="M245.694 24V10.77H250.23C251.886 10.77 253.164 11.172 254.064 11.976C254.976 12.768 255.432 13.848 255.432 15.216V15.504C255.432 16.872 254.976 17.958 254.064 18.762C253.164 19.566 251.886 19.968 250.23 19.968H248.25V24H245.694ZM250.446 12.984H248.25V17.754H250.446C251.214 17.754 251.802 17.532 252.21 17.088C252.63 16.644 252.84 16.068 252.84 15.36C252.84 14.652 252.63 14.082 252.21 13.65C251.802 13.206 251.214 12.984 250.446 12.984ZM261.577 24.342C260.737 24.342 259.999 24.198 259.363 23.91C258.739 23.622 258.217 23.238 257.797 22.758C257.389 22.266 257.077 21.72 256.861 21.12C256.657 20.52 256.555 19.908 256.555 19.284V18.942C256.555 18.294 256.657 17.67 256.861 17.07C257.077 16.47 257.389 15.93 257.797 15.45C258.217 14.97 258.733 14.592 259.345 14.316C259.957 14.028 260.665 13.884 261.469 13.884C262.525 13.884 263.407 14.118 264.115 14.586C264.823 15.042 265.357 15.648 265.717 16.404C266.089 17.148 266.275 17.952 266.275 18.816V19.716H258.931C259.015 20.484 259.267 21.102 259.687 21.57C260.119 22.038 260.749 22.272 261.577 22.272C262.177 22.272 262.669 22.152 263.053 21.912C263.449 21.66 263.701 21.354 263.809 20.994H266.113C265.897 22.002 265.387 22.812 264.583 23.424C263.779 24.036 262.777 24.342 261.577 24.342ZM261.469 15.954C260.761 15.954 260.197 16.152 259.777 16.548C259.357 16.944 259.087 17.49 258.967 18.186H263.881C263.785 17.49 263.533 16.944 263.125 16.548C262.729 16.152 262.177 15.954 261.469 15.954ZM272.613 24.126C271.713 24.126 270.969 24.012 270.381 23.784C269.793 23.544 269.355 23.148 269.067 22.596C268.791 22.044 268.653 21.288 268.653 20.328V16.062H267.105V14.226H268.653L268.671 11.472H271.011L270.993 14.226H274.017V16.062H270.993V20.49C270.993 20.97 271.119 21.342 271.371 21.606C271.635 21.858 272.007 21.984 272.487 21.984H274.017V24.126H272.613ZM280.2 24.072V10.77H284.952C286.14 10.77 287.172 10.95 288.048 11.31C288.936 11.658 289.674 12.138 290.262 12.75C290.862 13.35 291.306 14.034 291.594 14.802C291.894 15.57 292.044 16.368 292.044 17.196V17.592C292.044 18.384 291.894 19.164 291.594 19.932C291.306 20.7 290.862 21.396 290.262 22.02C289.674 22.644 288.936 23.142 288.048 23.514C287.172 23.886 286.14 24.072 284.952 24.072H280.2ZM285.114 13.146H282.756V21.696H285.114C286.014 21.696 286.788 21.516 287.436 21.156C288.084 20.784 288.582 20.274 288.93 19.626C289.278 18.978 289.452 18.234 289.452 17.394C289.452 16.086 289.068 15.054 288.3 14.298C287.532 13.53 286.47 13.146 285.114 13.146ZM296.907 24.252C295.827 24.252 294.963 23.976 294.315 23.424C293.679 22.872 293.361 22.098 293.361 21.102C293.361 20.034 293.745 19.248 294.513 18.744C295.293 18.228 296.337 17.97 297.645 17.97H299.643V17.88C299.643 16.764 299.079 16.206 297.951 16.206C297.651 16.206 297.291 16.212 296.871 16.224C296.451 16.236 296.025 16.254 295.593 16.278C295.173 16.29 294.795 16.308 294.459 16.332V14.208C294.867 14.172 295.353 14.142 295.917 14.118C296.493 14.094 297.021 14.082 297.501 14.082C299.001 14.082 300.129 14.388 300.885 15C301.653 15.6 302.037 16.578 302.037 17.934V24H300.057V22.128C299.613 23.544 298.563 24.252 296.907 24.252ZM297.609 22.47C297.945 22.47 298.263 22.41 298.563 22.29C298.863 22.158 299.109 21.942 299.301 21.642C299.505 21.33 299.619 20.91 299.643 20.382V19.464H297.609C297.033 19.464 296.589 19.608 296.277 19.896C295.977 20.172 295.827 20.532 295.827 20.976C295.827 21.432 295.977 21.798 296.277 22.074C296.589 22.338 297.033 22.47 297.609 22.47ZM306.502 23.784L303.334 14.226H305.854L308.23 21.804H308.626L310.588 14.226H312.982L310.084 24.864C309.784 25.956 309.31 26.724 308.662 27.168C308.026 27.624 307.108 27.852 305.908 27.852H304.306V25.71H306.142C306.646 25.71 307.036 25.608 307.312 25.404C307.6 25.212 307.816 24.852 307.96 24.324L308.104 23.784H306.502ZM318.828 24.342C317.976 24.342 317.238 24.198 316.614 23.91C315.99 23.622 315.474 23.238 315.066 22.758C314.658 22.278 314.352 21.738 314.148 21.138C313.944 20.538 313.842 19.926 313.842 19.302V18.96C313.842 18.312 313.944 17.688 314.148 17.088C314.364 16.476 314.676 15.93 315.084 15.45C315.504 14.97 316.02 14.592 316.632 14.316C317.256 14.028 317.982 13.884 318.81 13.884C319.662 13.884 320.418 14.052 321.078 14.388C321.75 14.712 322.284 15.168 322.68 15.756C323.088 16.344 323.322 17.028 323.382 17.808H320.952C320.88 17.304 320.664 16.884 320.304 16.548C319.944 16.212 319.446 16.044 318.81 16.044C317.97 16.044 317.346 16.332 316.938 16.908C316.542 17.484 316.344 18.222 316.344 19.122C316.344 19.998 316.536 20.73 316.92 21.318C317.316 21.894 317.952 22.182 318.828 22.182C319.476 22.182 319.986 22.014 320.358 21.678C320.742 21.342 320.97 20.904 321.042 20.364H323.472C323.424 21.156 323.19 21.852 322.77 22.452C322.362 23.052 321.816 23.52 321.132 23.856C320.448 24.18 319.68 24.342 318.828 24.342ZM328.249 24.252C327.169 24.252 326.305 23.976 325.657 23.424C325.021 22.872 324.703 22.098 324.703 21.102C324.703 20.034 325.087 19.248 325.855 18.744C326.635 18.228 327.679 17.97 328.987 17.97H330.985V17.88C330.985 16.764 330.421 16.206 329.293 16.206C328.993 16.206 328.633 16.212 328.213 16.224C327.793 16.236 327.367 16.254 326.935 16.278C326.515 16.29 326.137 16.308 325.801 16.332V14.208C326.209 14.172 326.695 14.142 327.259 14.118C327.835 14.094 328.363 14.082 328.843 14.082C330.343 14.082 331.471 14.388 332.227 15C332.995 15.6 333.379 16.578 333.379 17.934V24H331.399V22.128C330.955 23.544 329.905 24.252 328.249 24.252ZM328.951 22.47C329.287 22.47 329.605 22.41 329.905 22.29C330.205 22.158 330.451 21.942 330.643 21.642C330.847 21.33 330.961 20.91 330.985 20.382V19.464H328.951C328.375 19.464 327.931 19.608 327.619 19.896C327.319 20.172 327.169 20.532 327.169 20.976C327.169 21.432 327.319 21.798 327.619 22.074C327.931 22.338 328.375 22.47 328.951 22.47ZM336.059 24V14.226H338.039V17.412C338.303 15.204 339.467 14.1 341.531 14.1H341.891V16.278H341.207C340.355 16.278 339.701 16.506 339.245 16.962C338.789 17.418 338.561 18.066 338.561 18.906V24H336.059ZM347.868 24.342C347.028 24.342 346.29 24.198 345.654 23.91C345.03 23.622 344.508 23.238 344.088 22.758C343.68 22.266 343.368 21.72 343.152 21.12C342.948 20.52 342.846 19.908 342.846 19.284V18.942C342.846 18.294 342.948 17.67 343.152 17.07C343.368 16.47 343.68 15.93 344.088 15.45C344.508 14.97 345.024 14.592 345.636 14.316C346.248 14.028 346.956 13.884 347.76 13.884C348.816 13.884 349.698 14.118 350.406 14.586C351.114 15.042 351.648 15.648 352.008 16.404C352.38 17.148 352.566 17.952 352.566 18.816V19.716H345.222C345.306 20.484 345.558 21.102 345.978 21.57C346.41 22.038 347.04 22.272 347.868 22.272C348.468 22.272 348.96 22.152 349.344 21.912C349.74 21.66 349.992 21.354 350.1 20.994H352.404C352.188 22.002 351.678 22.812 350.874 23.424C350.07 24.036 349.068 24.342 347.868 24.342ZM347.76 15.954C347.052 15.954 346.488 16.152 346.068 16.548C345.648 16.944 345.378 17.49 345.258 18.186H350.172C350.076 17.49 349.824 16.944 349.416 16.548C349.02 16.152 348.468 15.954 347.76 15.954Z" fill="#48496A"/>
<path d="M441.694 24V10.77H446.23C447.886 10.77 449.164 11.172 450.064 11.976C450.976 12.768 451.432 13.848 451.432 15.216V15.504C451.432 16.872 450.976 17.958 450.064 18.762C449.164 19.566 447.886 19.968 446.23 19.968H444.25V24H441.694ZM446.446 12.984H444.25V17.754H446.446C447.214 17.754 447.802 17.532 448.21 17.088C448.63 16.644 448.84 16.068 448.84 15.36C448.84 14.652 448.63 14.082 448.21 13.65C447.802 13.206 447.214 12.984 446.446 12.984ZM457.577 24.342C456.737 24.342 455.999 24.198 455.363 23.91C454.739 23.622 454.217 23.238 453.797 22.758C453.389 22.266 453.077 21.72 452.861 21.12C452.657 20.52 452.555 19.908 452.555 19.284V18.942C452.555 18.294 452.657 17.67 452.861 17.07C453.077 16.47 453.389 15.93 453.797 15.45C454.217 14.97 454.733 14.592 455.345 14.316C455.957 14.028 456.665 13.884 457.469 13.884C458.525 13.884 459.407 14.118 460.115 14.586C460.823 15.042 461.357 15.648 461.717 16.404C462.089 17.148 462.275 17.952 462.275 18.816V19.716H454.931C455.015 20.484 455.267 21.102 455.687 21.57C456.119 22.038 456.749 22.272 457.577 22.272C458.177 22.272 458.669 22.152 459.053 21.912C459.449 21.66 459.701 21.354 459.809 20.994H462.113C461.897 22.002 461.387 22.812 460.583 23.424C459.779 24.036 458.777 24.342 457.577 24.342ZM457.469 15.954C456.761 15.954 456.197 16.152 455.777 16.548C455.357 16.944 455.087 17.49 454.967 18.186H459.881C459.785 17.49 459.533 16.944 459.125 16.548C458.729 16.152 458.177 15.954 457.469 15.954ZM468.613 24.126C467.713 24.126 466.969 24.012 466.381 23.784C465.793 23.544 465.355 23.148 465.067 22.596C464.791 22.044 464.653 21.288 464.653 20.328V16.062H463.105V14.226H464.653L464.671 11.472H467.011L466.993 14.226H470.017V16.062H466.993V20.49C466.993 20.97 467.119 21.342 467.371 21.606C467.635 21.858 468.007 21.984 468.487 21.984H470.017V24.126H468.613ZM478.792 24V13.11H474.994V10.86H485.146V13.11H481.348V24H478.792ZM486.408 24V14.226H488.388V17.412C488.652 15.204 489.816 14.1 491.88 14.1H492.24V16.278H491.556C490.704 16.278 490.05 16.506 489.594 16.962C489.138 17.418 488.91 18.066 488.91 18.906V24H486.408ZM496.633 24.252C495.553 24.252 494.689 23.976 494.041 23.424C493.405 22.872 493.087 22.098 493.087 21.102C493.087 20.034 493.471 19.248 494.239 18.744C495.019 18.228 496.063 17.97 497.371 17.97H499.369V17.88C499.369 16.764 498.805 16.206 497.677 16.206C497.377 16.206 497.017 16.212 496.597 16.224C496.177 16.236 495.751 16.254 495.319 16.278C494.899 16.29 494.521 16.308 494.185 16.332V14.208C494.593 14.172 495.079 14.142 495.643 14.118C496.219 14.094 496.747 14.082 497.227 14.082C498.727 14.082 499.855 14.388 500.611 15C501.379 15.6 501.763 16.578 501.763 17.934V24H499.783V22.128C499.339 23.544 498.289 24.252 496.633 24.252ZM497.335 22.47C497.671 22.47 497.989 22.41 498.289 22.29C498.589 22.158 498.835 21.942 499.027 21.642C499.231 21.33 499.345 20.91 499.369 20.382V19.464H497.335C496.759 19.464 496.315 19.608 496.003 19.896C495.703 20.172 495.553 20.532 495.553 20.976C495.553 21.432 495.703 21.798 496.003 22.074C496.315 22.338 496.759 22.47 497.335 22.47ZM504.443 24V14.226H506.423V16.638C506.843 14.826 507.959 13.92 509.771 13.92H509.879C511.043 13.92 511.925 14.298 512.525 15.054C513.125 15.81 513.425 16.926 513.425 18.402V24H510.923V18.186C510.923 17.586 510.749 17.1 510.401 16.728C510.053 16.356 509.585 16.17 508.997 16.17C508.385 16.17 507.887 16.362 507.503 16.746C507.131 17.13 506.945 17.634 506.945 18.258V24H504.443ZM519.661 24.306C518.317 24.306 517.261 24.024 516.493 23.46C515.737 22.884 515.341 22.092 515.305 21.084H517.555C517.579 21.432 517.759 21.744 518.095 22.02C518.443 22.284 518.977 22.416 519.697 22.416C520.285 22.416 520.759 22.308 521.119 22.092C521.479 21.876 521.659 21.582 521.659 21.21C521.659 20.886 521.521 20.634 521.245 20.454C520.981 20.262 520.525 20.13 519.877 20.058L519.013 19.968C517.909 19.848 517.063 19.536 516.475 19.032C515.899 18.528 515.611 17.856 515.611 17.016C515.611 16.356 515.779 15.798 516.115 15.342C516.451 14.874 516.913 14.526 517.501 14.298C518.101 14.058 518.785 13.938 519.553 13.938C520.753 13.938 521.725 14.208 522.469 14.748C523.213 15.276 523.603 16.044 523.639 17.052H521.389C521.353 16.716 521.179 16.428 520.867 16.188C520.567 15.948 520.123 15.828 519.535 15.828C519.007 15.828 518.599 15.93 518.311 16.134C518.023 16.338 517.879 16.602 517.879 16.926C517.879 17.238 517.993 17.478 518.221 17.646C518.449 17.814 518.833 17.928 519.373 17.988L520.237 18.078C521.377 18.198 522.277 18.516 522.937 19.032C523.597 19.548 523.927 20.244 523.927 21.12C523.927 21.768 523.747 22.332 523.387 22.812C523.039 23.28 522.547 23.646 521.911 23.91C521.275 24.174 520.525 24.306 519.661 24.306ZM525.994 27.6V14.226H527.974V16.674C528.274 15.762 528.766 15.078 529.45 14.622C530.134 14.154 530.92 13.92 531.808 13.92C532.732 13.92 533.53 14.142 534.202 14.586C534.886 15.03 535.42 15.63 535.804 16.386C536.188 17.13 536.38 17.97 536.38 18.906V19.284C536.38 20.22 536.194 21.072 535.822 21.84C535.45 22.596 534.922 23.202 534.238 23.658C533.554 24.102 532.744 24.324 531.808 24.324C531.124 24.324 530.494 24.198 529.918 23.946C529.342 23.682 528.868 23.268 528.496 22.704V27.6H525.994ZM531.178 22.218C531.982 22.218 532.63 21.93 533.122 21.354C533.626 20.766 533.878 20.016 533.878 19.104C533.878 18.18 533.626 17.436 533.122 16.872C532.63 16.308 531.982 16.026 531.178 16.026C530.686 16.026 530.23 16.14 529.81 16.368C529.39 16.584 529.054 16.902 528.802 17.322C528.55 17.73 528.424 18.228 528.424 18.816V19.536C528.424 20.1 528.556 20.586 528.82 20.994C529.084 21.39 529.426 21.696 529.846 21.912C530.266 22.116 530.71 22.218 531.178 22.218ZM543.278 24.342C542.126 24.342 541.154 24.108 540.362 23.64C539.57 23.16 538.964 22.536 538.544 21.768C538.136 21 537.932 20.184 537.932 19.32V18.942C537.932 18.042 538.142 17.208 538.562 16.44C538.994 15.672 539.606 15.054 540.398 14.586C541.202 14.118 542.162 13.884 543.278 13.884C544.382 13.884 545.33 14.118 546.122 14.586C546.926 15.054 547.538 15.672 547.958 16.44C548.39 17.208 548.606 18.042 548.606 18.942V19.32C548.606 20.184 548.396 21 547.976 21.768C547.568 22.536 546.968 23.16 546.176 23.64C545.384 24.108 544.418 24.342 543.278 24.342ZM543.278 22.2C544.19 22.2 544.886 21.912 545.366 21.336C545.858 20.748 546.104 20.01 546.104 19.122C546.104 18.234 545.852 17.496 545.348 16.908C544.844 16.32 544.154 16.026 543.278 16.026C542.39 16.026 541.694 16.32 541.19 16.908C540.686 17.496 540.434 18.234 540.434 19.122C540.434 20.01 540.674 20.748 541.154 21.336C541.646 21.912 542.354 22.2 543.278 22.2ZM550.797 24V14.226H552.777V17.412C553.041 15.204 554.205 14.1 556.269 14.1H556.629V16.278H555.945C555.093 16.278 554.439 16.506 553.983 16.962C553.527 17.418 553.299 18.066 553.299 18.906V24H550.797ZM562.762 24.126C561.862 24.126 561.118 24.012 560.53 23.784C559.942 23.544 559.504 23.148 559.216 22.596C558.94 22.044 558.802 21.288 558.802 20.328V16.062H557.254V14.226H558.802L558.82 11.472H561.16L561.142 14.226H564.166V16.062H561.142V20.49C561.142 20.97 561.268 21.342 561.52 21.606C561.784 21.858 562.156 21.984 562.636 21.984H564.166V24.126H562.762Z" fill="#48496A"/>
<path d="M422.726 8H417.423C416.756 8 416.215 8.5405 416.215 9.20722V10.7766H417.423V9.4487C417.423 9.31534 417.531 9.20725 417.664 9.20725H422.484C422.618 9.20725 422.726 9.31534 422.726 9.4487V10.7767H423.933V9.20722C423.933 8.5405 423.392 8 422.726 8Z" fill="url(#paint4_linear_11_1098)"/>
<path d="M410.678 19.9925L412.276 27.0595C412.4 27.6098 412.889 28.0005 413.454 28.0005H426.695C427.259 28.0005 427.748 27.6098 427.872 27.0595L429.471 19.9925V18.1817L427.885 11.6978C427.753 11.1574 427.268 10.7773 426.712 10.7773H413.454C412.889 10.7773 412.4 11.168 412.276 11.7183L410.678 18.7853V19.9925Z" fill="url(#paint5_linear_11_1098)"/>
<path d="M427.885 11.6978C427.752 11.1574 427.268 10.7773 426.712 10.7773H426.549C426.605 10.8747 426.65 10.9806 426.677 11.0942L427.833 15.8191C428.119 16.9875 428.519 18.2135 428.263 19.3889C427.247 24.0655 423.104 27.4048 418.317 27.4013C416.347 27.3998 414.377 27.3984 412.408 27.3969C412.619 27.7627 413.013 28.0005 413.453 28.0005H426.695C427.259 28.0005 427.748 27.6098 427.872 27.0595L429.47 19.9925V18.1817L427.885 11.6978Z" fill="url(#paint6_linear_11_1098)"/>
<path d="M420.074 16.3972C419.741 16.3972 419.47 16.127 419.47 15.7936V13.7677C419.47 13.4343 419.741 13.1641 420.074 13.1641C420.407 13.1641 420.678 13.4343 420.678 13.7677V15.7936C420.678 16.127 420.407 16.3972 420.074 16.3972Z" fill="#FFF9E2"/>
<path d="M424.299 16.3975C424.039 16.3975 423.799 16.2281 423.721 15.9661L423.117 13.9402C423.022 13.6207 423.204 13.2846 423.523 13.1894C423.843 13.0941 424.179 13.276 424.274 13.5955L424.878 15.6214C424.973 15.9409 424.791 16.2771 424.472 16.3723C424.414 16.3894 424.356 16.3975 424.299 16.3975Z" fill="#FFF9E2"/>
<path d="M415.849 16.3975C415.792 16.3975 415.734 16.3894 415.677 16.3723C415.357 16.2771 415.175 15.9409 415.27 15.6214L415.874 13.5955C415.969 13.276 416.305 13.0941 416.625 13.1894C416.944 13.2846 417.126 13.6207 417.031 13.9402L416.427 15.9661C416.349 16.2281 416.109 16.3975 415.849 16.3975Z" fill="#FFF9E2"/>
<path d="M420.074 25.3103C419.741 25.3103 419.47 25.0401 419.47 24.7067V22.6808C419.47 22.3474 419.741 22.0771 420.074 22.0771C420.407 22.0771 420.678 22.3474 420.678 22.6808V24.7067C420.678 25.0401 420.407 25.3103 420.074 25.3103Z" fill="#FFF9E2"/>
<path d="M423.696 25.3106C423.639 25.3106 423.581 25.3024 423.523 25.2853C423.204 25.1901 423.022 24.8539 423.117 24.5345L423.721 22.5085C423.816 22.1891 424.152 22.0073 424.472 22.1024C424.791 22.1976 424.973 22.5338 424.878 22.8533L424.274 24.8792C424.196 25.1412 423.956 25.3106 423.696 25.3106Z" fill="#FFF9E2"/>
<path d="M416.452 25.3116C416.192 25.3116 415.952 25.1422 415.874 24.8802L415.27 22.8543C415.175 22.5348 415.357 22.1987 415.677 22.1035C415.996 22.0081 416.332 22.1901 416.427 22.5096L417.031 24.5355C417.126 24.855 416.944 25.1912 416.625 25.2864C416.567 25.3035 416.509 25.3116 416.452 25.3116Z" fill="#FFF9E2"/>
<g filter="url(#filter2_d_11_1098)">
<path d="M429.672 19.9915H410.477C410.254 19.9915 410.074 19.8114 410.074 19.5891V18.5831C410.074 18.3608 410.254 18.1807 410.477 18.1807H429.672C429.894 18.1807 430.074 18.3608 430.074 18.5831V19.5891C430.074 19.8114 429.894 19.9915 429.672 19.9915Z" fill="white"/>
</g>
<g filter="url(#filter3_d_11_1098)">
<path d="M421.826 20.4481H418.323C418.1 20.4481 417.92 20.268 417.92 20.0457V18.128C417.92 17.9057 418.1 17.7256 418.323 17.7256H421.826C422.048 17.7256 422.228 17.9057 422.228 18.128V20.0457C422.228 20.268 422.048 20.4481 421.826 20.4481Z" fill="#FFE5AC"/>
</g>
<path d="M421.826 17.7256H421.021C421.021 18.8958 420.072 19.8445 418.902 19.8445H417.92V20.0457C417.92 20.2679 418.1 20.4481 418.323 20.4481H421.826C422.048 20.4481 422.228 20.2679 422.228 20.0457V18.128C422.228 17.9058 422.048 17.7256 421.826 17.7256Z" fill="#FFF6E1"/>
<g filter="url(#filter4_d_11_1098)">
<path fill-rule="evenodd" clip-rule="evenodd" d="M8.2318 12.5223C7.97335 12.7193 7.92347 13.0884 8.12038 13.3469C8.31729 13.6054 8.68642 13.6553 8.94487 13.4584L9.40679 13.1064L10.1503 23.5114C10.1723 23.8192 10.4285 24.0578 10.7372 24.0578H23.2477C23.5563 24.0578 23.8125 23.8192 23.8345 23.5114L24.5842 13.0204L25.1716 13.461C25.4315 13.656 25.8002 13.6033 25.9952 13.3434C26.1901 13.0834 26.1375 12.7146 25.8775 12.5196L17.3427 6.11768C17.1322 5.95978 16.8425 5.96088 16.6332 6.12036L8.2318 12.5223Z" fill="url(#paint7_linear_11_1098)"/>
<path fill-rule="evenodd" clip-rule="evenodd" d="M17.5876 11.0899C17.5876 11.3823 17.3506 11.6193 17.0582 11.6193C16.7659 11.6193 16.5289 11.3823 16.5289 11.0899C16.5289 10.7975 16.7659 10.5605 17.0582 10.5605C17.3506 10.5605 17.5876 10.7975 17.5876 11.0899ZM19.4402 14.2662C19.4402 15.1432 18.3144 15.8542 16.9257 15.8542C15.537 15.8542 14.4113 15.1432 14.4113 14.2662C14.4113 13.3891 15.537 12.6781 16.9257 12.6781C18.3144 12.6781 19.4402 13.3891 19.4402 14.2662ZM19.1756 12.1482C19.4679 12.1482 19.7049 11.9112 19.7049 11.6189C19.7049 11.3265 19.4679 11.0895 19.1756 11.0895C18.8832 11.0895 18.6462 11.3265 18.6462 11.6189C18.6462 11.9112 18.8832 12.1482 19.1756 12.1482ZM15.47 11.6189C15.47 11.9112 15.233 12.1482 14.9406 12.1482C14.6483 12.1482 14.4113 11.9112 14.4113 11.6189C14.4113 11.3265 14.6483 11.0895 14.9406 11.0895C15.233 11.0895 15.47 11.3265 15.47 11.6189ZM17.058 16.6474C15.0115 16.6474 13.3525 18.3064 13.3525 20.3529V24.0584H20.7635V20.3529C20.7635 18.3064 19.1045 16.6474 17.058 16.6474Z" fill="url(#paint8_linear_11_1098)"/>
</g>
<path d="M38.6737 21V7.77H43.2097C44.8657 7.77 46.1437 8.172 47.0437 8.976C47.9557 9.768 48.4117 10.848 48.4117 12.216V12.504C48.4117 13.872 47.9557 14.958 47.0437 15.762C46.1437 16.566 44.8657 16.968 43.2097 16.968H41.2297V21H38.6737ZM43.4257 9.984H41.2297V14.754H43.4257C44.1937 14.754 44.7817 14.532 45.1897 14.088C45.6097 13.644 45.8197 13.068 45.8197 12.36C45.8197 11.652 45.6097 11.082 45.1897 10.65C44.7817 10.206 44.1937 9.984 43.4257 9.984ZM54.5567 21.342C53.7167 21.342 52.9787 21.198 52.3427 20.91C51.7187 20.622 51.1967 20.238 50.7767 19.758C50.3687 19.266 50.0567 18.72 49.8407 18.12C49.6367 17.52 49.5347 16.908 49.5347 16.284V15.942C49.5347 15.294 49.6367 14.67 49.8407 14.07C50.0567 13.47 50.3687 12.93 50.7767 12.45C51.1967 11.97 51.7127 11.592 52.3247 11.316C52.9367 11.028 53.6447 10.884 54.4487 10.884C55.5047 10.884 56.3867 11.118 57.0947 11.586C57.8027 12.042 58.3367 12.648 58.6967 13.404C59.0687 14.148 59.2547 14.952 59.2547 15.816V16.716H51.9107C51.9947 17.484 52.2467 18.102 52.6667 18.57C53.0987 19.038 53.7287 19.272 54.5567 19.272C55.1567 19.272 55.6487 19.152 56.0327 18.912C56.4287 18.66 56.6807 18.354 56.7887 17.994H59.0927C58.8767 19.002 58.3667 19.812 57.5627 20.424C56.7587 21.036 55.7567 21.342 54.5567 21.342ZM54.4487 12.954C53.7407 12.954 53.1767 13.152 52.7567 13.548C52.3367 13.944 52.0667 14.49 51.9467 15.186H56.8607C56.7647 14.49 56.5127 13.944 56.1047 13.548C55.7087 13.152 55.1567 12.954 54.4487 12.954ZM65.5929 21.126C64.6929 21.126 63.9489 21.012 63.3609 20.784C62.7729 20.544 62.3349 20.148 62.0469 19.596C61.7709 19.044 61.6329 18.288 61.6329 17.328V13.062H60.0849V11.226H61.6329L61.6509 8.472H63.9909L63.9729 11.226H66.9969V13.062H63.9729V17.49C63.9729 17.97 64.0989 18.342 64.3509 18.606C64.6149 18.858 64.9869 18.984 65.4669 18.984H66.9969V21.126H65.5929ZM73.1796 21.09V7.77H77.8956C79.3836 7.77 80.5116 8.082 81.2796 8.706C82.0596 9.33 82.4496 10.224 82.4496 11.388V11.64C82.4496 12.276 82.3296 12.804 82.0896 13.224C81.8616 13.644 81.5436 13.986 81.1356 14.25C81.7116 14.49 82.1616 14.844 82.4856 15.312C82.8216 15.78 82.9896 16.392 82.9896 17.148V17.4C82.9896 18.576 82.5996 19.488 81.8196 20.136C81.0516 20.772 79.9236 21.09 78.4356 21.09H73.1796ZM78.1296 9.822H75.6816V13.386H78.1296C78.7416 13.386 79.1916 13.224 79.4796 12.9C79.7676 12.576 79.9116 12.144 79.9116 11.604C79.9116 11.064 79.7676 10.632 79.4796 10.308C79.1916 9.984 78.7416 9.822 78.1296 9.822ZM78.6156 15.366H75.6816V19.038H78.6156C79.2156 19.038 79.6716 18.876 79.9836 18.552C80.2956 18.228 80.4516 17.772 80.4516 17.184C80.4516 16.608 80.2956 16.164 79.9836 15.852C79.6716 15.528 79.2156 15.366 78.6156 15.366ZM90.0018 21.342C88.8498 21.342 87.8778 21.108 87.0858 20.64C86.2938 20.16 85.6878 19.536 85.2678 18.768C84.8598 18 84.6558 17.184 84.6558 16.32V15.942C84.6558 15.042 84.8658 14.208 85.2858 13.44C85.7178 12.672 86.3298 12.054 87.1218 11.586C87.9258 11.118 88.8858 10.884 90.0018 10.884C91.1058 10.884 92.0538 11.118 92.8458 11.586C93.6498 12.054 94.2618 12.672 94.6818 13.44C95.1138 14.208 95.3298 15.042 95.3298 15.942V16.32C95.3298 17.184 95.1198 18 94.6998 18.768C94.2918 19.536 93.6918 20.16 92.8998 20.64C92.1078 21.108 91.1418 21.342 90.0018 21.342ZM90.0018 19.2C90.9138 19.2 91.6098 18.912 92.0898 18.336C92.5818 17.748 92.8278 17.01 92.8278 16.122C92.8278 15.234 92.5758 14.496 92.0718 13.908C91.5678 13.32 90.8778 13.026 90.0018 13.026C89.1138 13.026 88.4178 13.32 87.9138 13.908C87.4098 14.496 87.1578 15.234 87.1578 16.122C87.1578 17.01 87.3978 17.748 87.8778 18.336C88.3698 18.912 89.0778 19.2 90.0018 19.2ZM100.293 21.252C99.2126 21.252 98.3486 20.976 97.7006 20.424C97.0646 19.872 96.7466 19.098 96.7466 18.102C96.7466 17.034 97.1306 16.248 97.8986 15.744C98.6786 15.228 99.7226 14.97 101.031 14.97H103.029V14.88C103.029 13.764 102.465 13.206 101.337 13.206C101.037 13.206 100.677 13.212 100.257 13.224C99.8366 13.236 99.4106 13.254 98.9786 13.278C98.5586 13.29 98.1806 13.308 97.8446 13.332V11.208C98.2526 11.172 98.7386 11.142 99.3026 11.118C99.8786 11.094 100.407 11.082 100.887 11.082C102.387 11.082 103.515 11.388 104.271 12C105.039 12.6 105.423 13.578 105.423 14.934V21H103.443V19.128C102.999 20.544 101.949 21.252 100.293 21.252ZM100.995 19.47C101.331 19.47 101.649 19.41 101.949 19.29C102.249 19.158 102.495 18.942 102.687 18.642C102.891 18.33 103.005 17.91 103.029 17.382V16.464H100.995C100.419 16.464 99.9746 16.608 99.6626 16.896C99.3626 17.172 99.2126 17.532 99.2126 17.976C99.2126 18.432 99.3626 18.798 99.6626 19.074C99.9746 19.338 100.419 19.47 100.995 19.47ZM108.103 21V11.226H110.083V14.412C110.347 12.204 111.511 11.1 113.575 11.1H113.935V13.278H113.251C112.399 13.278 111.745 13.506 111.289 13.962C110.833 14.418 110.605 15.066 110.605 15.906V21H108.103ZM119.588 21.324C118.676 21.324 117.866 21.108 117.158 20.676C116.45 20.232 115.892 19.632 115.484 18.876C115.088 18.12 114.89 17.268 114.89 16.32V15.942C114.89 15.006 115.082 14.16 115.466 13.404C115.85 12.648 116.384 12.048 117.068 11.604C117.764 11.148 118.58 10.92 119.516 10.92C120.212 10.92 120.836 11.064 121.388 11.352C121.952 11.628 122.414 12.048 122.774 12.612V7.86H125.276V21H123.296V18.948C122.96 19.74 122.462 20.334 121.802 20.73C121.154 21.126 120.416 21.324 119.588 21.324ZM120.146 19.218C120.638 19.218 121.088 19.11 121.496 18.894C121.904 18.666 122.228 18.342 122.468 17.922C122.72 17.502 122.846 16.998 122.846 16.41V15.69C122.846 15.126 122.714 14.646 122.45 14.25C122.198 13.854 121.868 13.554 121.46 13.35C121.052 13.134 120.614 13.026 120.146 13.026C119.33 13.026 118.664 13.314 118.148 13.89C117.644 14.454 117.392 15.204 117.392 16.14C117.392 17.076 117.65 17.826 118.166 18.39C118.682 18.942 119.342 19.218 120.146 19.218ZM129.51 10.056C129.018 10.056 128.652 9.93 128.412 9.678C128.184 9.414 128.07 9.084 128.07 8.688C128.07 8.292 128.184 7.968 128.412 7.716C128.652 7.464 129.018 7.338 129.51 7.338C129.99 7.338 130.344 7.464 130.572 7.716C130.812 7.968 130.932 8.292 130.932 8.688C130.932 9.084 130.812 9.414 130.572 9.678C130.344 9.93 129.99 10.056 129.51 10.056ZM128.592 21V13.098H127.224V11.226H131.094V21H128.592ZM133.978 21V11.226H135.958V13.638C136.378 11.826 137.494 10.92 139.306 10.92H139.414C140.578 10.92 141.46 11.298 142.06 12.054C142.66 12.81 142.96 13.926 142.96 15.402V21H140.458V15.186C140.458 14.586 140.284 14.1 139.936 13.728C139.588 13.356 139.12 13.17 138.532 13.17C137.92 13.17 137.422 13.362 137.038 13.746C136.666 14.13 136.48 14.634 136.48 15.258V21H133.978ZM149.466 24.852C148.47 24.852 147.54 24.786 146.676 24.654V22.566C147.096 22.626 147.552 22.674 148.044 22.71C148.548 22.746 149.016 22.764 149.448 22.764C150.648 22.764 151.512 22.542 152.04 22.098C152.58 21.666 152.85 20.964 152.85 19.992V19.128C152.514 19.764 152.052 20.25 151.464 20.586C150.888 20.91 150.222 21.072 149.466 21.072C148.566 21.072 147.78 20.856 147.108 20.424C146.448 19.98 145.932 19.392 145.56 18.66C145.188 17.916 145.002 17.082 145.002 16.158V15.78C145.002 14.856 145.194 14.028 145.578 13.296C145.974 12.564 146.514 11.988 147.198 11.568C147.894 11.136 148.698 10.92 149.61 10.92C150.462 10.92 151.194 11.118 151.806 11.514C152.43 11.91 152.904 12.48 153.228 13.224V11.226H155.208V19.848C155.208 21.636 154.746 22.914 153.822 23.682C152.898 24.462 151.446 24.852 149.466 24.852ZM150.186 18.93C150.666 18.93 151.104 18.822 151.5 18.606C151.896 18.39 152.214 18.078 152.454 17.67C152.694 17.262 152.814 16.77 152.814 16.194V15.564C152.814 15.012 152.688 14.544 152.436 14.16C152.196 13.776 151.872 13.488 151.464 13.296C151.068 13.092 150.642 12.99 150.186 12.99C149.394 12.99 148.746 13.266 148.242 13.818C147.75 14.358 147.504 15.078 147.504 15.978C147.504 16.89 147.75 17.61 148.242 18.138C148.746 18.666 149.394 18.93 150.186 18.93Z" fill="#48496A"/>
<line opacity="0.07" x1="9" y1="37" x2="564" y2="37" stroke="#FF5B2E" stroke-width="2" stroke-linecap="round"/>
<line x1="9" y1="37" x2="102" y2="37" stroke="#FF5B2E" stroke-width="2" stroke-linecap="round"/>
<defs>
<filter id="filter0_d_11_1098" x="206.744" y="15.9756" width="21.4922" height="21.0244" filterUnits="userSpaceOnUse" color-interpolation-filters="sRGB">
<feFlood flood-opacity="0" result="BackgroundImageFix"/>
<feColorMatrix in="SourceAlpha" type="matrix" values="0 0 0 0 0 0 0 0 0 0 0 0 0 0 0 0 0 0 127 0" result="hardAlpha"/>
<feOffset dy="2"/>
<feGaussianBlur stdDeviation="3.5"/>
<feComposite in2="hardAlpha" operator="out"/>
<feColorMatrix type="matrix" values="0 0 0 0 1 0 0 0 0 0.368627 0 0 0 0 0.196078 0 0 0 0.35 0"/>
<feBlend mode="normal" in2="BackgroundImageFix" result="effect1_dropShadow_11_1098"/>
<feBlend mode="normal" in="SourceGraphic" in2="effect1_dropShadow_11_1098" result="shape"/>
</filter>
<filter id="filter1_d_11_1098" x="209.807" y="20.6035" width="15.3164" height="9.69629" filterUnits="userSpaceOnUse" color-interpolation-filters="sRGB">
<feFlood flood-opacity="0" result="BackgroundImageFix"/>
<feColorMatrix in="SourceAlpha" type="matrix" values="0 0 0 0 0 0 0 0 0 0 0 0 0 0 0 0 0 0 127 0" result="hardAlpha"/>
<feOffset dy="1"/>
<feGaussianBlur stdDeviation="1.5"/>
<feComposite in2="hardAlpha" operator="out"/>
<feColorMatrix type="matrix" values="0 0 0 0 0.754134 0 0 0 0 0.190122 0 0 0 0 0.0369334 0 0 0 1 0"/>
<feBlend mode="normal" in2="BackgroundImageFix" result="effect1_dropShadow_11_1098"/>
<feBlend mode="normal" in="SourceGraphic" in2="effect1_dropShadow_11_1098" result="shape"/>
</filter>
<filter id="filter2_d_11_1098" x="408.074" y="17.1807" width="23.9998" height="5.81055" filterUnits="userSpaceOnUse" color-interpolation-filters="sRGB">
<feFlood flood-opacity="0" result="BackgroundImageFix"/>
<feColorMatrix in="SourceAlpha" type="matrix" values="0 0 0 0 0 0 0 0 0 0 0 0 0 0 0 0 0 0 127 0" result="hardAlpha"/>
<feOffset dy="1"/>
<feGaussianBlur stdDeviation="1"/>
<feComposite in2="hardAlpha" operator="out"/>
<feColorMatrix type="matrix" values="0 0 0 0 0.846777 0 0 0 0 0.584621 0 0 0 0 0.00971645 0 0 0 0.17 0"/>
<feBlend mode="normal" in2="BackgroundImageFix" result="effect1_dropShadow_11_1098"/>
<feBlend mode="normal" in="SourceGraphic" in2="effect1_dropShadow_11_1098" result="shape"/>
</filter>
<filter id="filter3_d_11_1098" x="412.92" y="13.7256" width="14.3079" height="12.7227" filterUnits="userSpaceOnUse" color-interpolation-filters="sRGB">
<feFlood flood-opacity="0" result="BackgroundImageFix"/>
<feColorMatrix in="SourceAlpha" type="matrix" values="0 0 0 0 0 0 0 0 0 0 0 0 0 0 0 0 0 0 127 0" result="hardAlpha"/>
<feOffset dy="1"/>
<feGaussianBlur stdDeviation="2.5"/>
<feComposite in2="hardAlpha" operator="out"/>
<feColorMatrix type="matrix" values="0 0 0 0 0.737533 0 0 0 0 0.534613 0 0 0 0 0.0852892 0 0 0 1 0"/>
<feBlend mode="normal" in2="BackgroundImageFix" result="effect1_dropShadow_11_1098"/>
<feBlend mode="normal" in="SourceGraphic" in2="effect1_dropShadow_11_1098" result="shape"/>
</filter>
<filter id="filter4_d_11_1098" x="0" y="0" width="34.1128" height="34.0586" filterUnits="userSpaceOnUse" color-interpolation-filters="sRGB">
<feFlood flood-opacity="0" result="BackgroundImageFix"/>
<feColorMatrix in="SourceAlpha" type="matrix" values="0 0 0 0 0 0 0 0 0 0 0 0 0 0 0 0 0 0 127 0" result="hardAlpha"/>
<feOffset dy="2"/>
<feGaussianBlur stdDeviation="4"/>
<feComposite in2="hardAlpha" operator="out"/>
<feColorMatrix type="matrix" values="0 0 0 0 0.290641 0 0 0 0 0.675565 0 0 0 0 1 0 0 0 0.19 0"/>
<feBlend mode="normal" in2="BackgroundImageFix" result="effect1_dropShadow_11_1098"/>
<feBlend mode="normal" in="SourceGraphic" in2="effect1_dropShadow_11_1098" result="shape"/>
</filter>
<linearGradient id="paint0_linear_11_1098" x1="224.991" y1="12.4111" x2="224.991" y2="25.3867" gradientUnits="userSpaceOnUse">
<stop stop-color="#FFAD97"/>
<stop offset="1" stop-color="#FF5B2E"/>
</linearGradient>
<linearGradient id="paint1_linear_11_1098" x1="224.991" y1="9.29688" x2="224.991" y2="12.6705" gradientUnits="userSpaceOnUse">
<stop stop-color="#FFAD97"/>
<stop offset="1" stop-color="#FF5B2E"/>
</linearGradient>
<linearGradient id="paint2_linear_11_1098" x1="1.03805" y1="0" x2="1.03805" y2="2.0761" gradientUnits="userSpaceOnUse">
<stop stop-color="#FFAD97"/>
<stop offset="1" stop-color="#FF5B2E"/>
</linearGradient>
<linearGradient id="paint3_linear_11_1098" x1="217.49" y1="20.9756" x2="217.49" y2="27.9998" gradientUnits="userSpaceOnUse">
<stop stop-color="#FF9071"/>
<stop offset="1" stop-color="#FF5B2E"/>
</linearGradient>
<linearGradient id="paint4_linear_11_1098" x1="420.074" y1="8" x2="420.074" y2="10.7767" gradientUnits="userSpaceOnUse">
<stop stop-color="#FFD986"/>
<stop offset="1" stop-color="#FABF3E"/>
</linearGradient>
<linearGradient id="paint5_linear_11_1098" x1="420.074" y1="10.7773" x2="420.074" y2="28.0005" gradientUnits="userSpaceOnUse">
<stop stop-color="#FFD986"/>
<stop offset="1" stop-color="#FABF3E"/>
</linearGradient>
<linearGradient id="paint6_linear_11_1098" x1="428.5" y1="12.5" x2="420.939" y2="28.0005" gradientUnits="userSpaceOnUse">
<stop stop-color="#FFD984"/>
<stop offset="1" stop-color="#F5B42A"/>
</linearGradient>
<linearGradient id="paint7_linear_11_1098" x1="17.0564" y1="6" x2="17.0564" y2="24.0578" gradientUnits="userSpaceOnUse">
<stop stop-color="#4C9EE2"/>
<stop offset="1" stop-color="#73BFFF"/>
</linearGradient>
<linearGradient id="paint8_linear_11_1098" x1="17.058" y1="10.5605" x2="17.058" y2="24.0584" gradientUnits="userSpaceOnUse">
<stop stop-color="white"/>
<stop offset="1" stop-color="white" stop-opacity="0.59"/>
</linearGradient>
</defs>
</svg>
